<?xml version="1.0" encoding="utf-8"?>
<!-- Generator: Adobe Illustrator 16.0.0, SVG Export Plug-In . SVG Version: 6.00 Build 0)  -->
<!DOCTYPE svg PUBLIC "-//W3C//DTD SVG 1.1//EN" "http://www.w3.org/Graphics/SVG/1.1/DTD/svg11.dtd">
<svg version="1.1" id="Layer_1" xmlns="http://www.w3.org/2000/svg" xmlns:xlink="http://www.w3.org/1999/xlink" x="0px" y="0px"
	 width="68.621px" height="19.354px" viewBox="0 0.328 68.621 19.354" enable-background="new 0 0.328 68.621 19.354"
	 xml:space="preserve">
<path fill="#3C948B" d="M43.154,0.328l-3.189,13.387c-0.244,1.091-0.325,2.042-0.325,2.042h-0.056c-0.029,0-0.056-0.926-0.355-2.042
	L35.795,0.328h-3.053l-3.488,13.387c-0.301,1.114-0.327,2.042-0.355,2.042h-0.054c0,0-0.086-0.953-0.326-2.042L26.235,3.691
	L24.518,11l2.173,8.68h4.062l2.971-11.447c0.326-1.254,0.492-2.534,0.492-2.534h0.052c0,0,0.163,1.28,0.492,2.534l2.975,11.447
	h4.059l4.992-19.354L43.154,0.328L43.154,0.328z"/>
<path fill="#3C948B" d="M64.991,0.328L61.8,13.715c-0.243,1.091-0.325,2.042-0.325,2.042h-0.057c-0.025,0-0.052-0.926-0.351-2.042
	L57.63,0.328h-3.05l-3.49,13.387c-0.302,1.114-0.326,2.042-0.354,2.042H50.68c0,0-0.082-0.953-0.326-2.042L48.056,3.646
	l-1.717,7.309l2.189,8.727h4.06l2.97-11.447c0.326-1.255,0.493-2.535,0.493-2.535h0.054c0,0,0.164,1.28,0.491,2.535l2.973,11.447
	h4.06l4.992-19.354H64.991L64.991,0.328z"/>
<path fill="#2E2D2D" d="M17.393,13.713c0.299,1.116,0.325,2.042,0.352,2.042H17.8c0,0,0.084-0.956,0.327-2.042l3.188-13.388h3.626
	l-4.99,19.354h-4.06l-2.97-11.448c-0.326-1.254-0.493-2.534-0.493-2.534h-0.054c0,0-0.162,1.28-0.491,2.534L8.911,19.678H4.85
	L0,0.328h3.625l3.054,13.387c0.246,1.091,0.327,2.042,0.327,2.042h0.055c0.029,0,0.052-0.926,0.355-2.042l3.489-13.387h3.049
	L17.393,13.713z"/>
</svg>
